<mxfile host="app.diagrams.net" modified="2024-04-28T19:44:45.959Z" agent="Mozilla/5.0 (Windows NT 10.0; Win64; x64) AppleWebKit/537.36 (KHTML, like Gecko) Chrome/124.0.0.0 Safari/537.36" etag="HGJnDESy8z31dardc60s" version="24.3.1" type="github" pages="2">
  <diagram name="Concept" id="poEPPQXDhyU4EAC8hgf6">
    <mxGraphModel dx="1434" dy="746" grid="1" gridSize="10" guides="1" tooltips="1" connect="1" arrows="1" fold="1" page="1" pageScale="1" pageWidth="827" pageHeight="1169" math="0" shadow="0">
      <root>
        <mxCell id="0" />
        <mxCell id="1" parent="0" />
        <mxCell id="_IArWRks9-vZPTTfE0xz-39" value="" style="rounded=0;whiteSpace=wrap;html=1;fillColor=#d5e8d4;strokeColor=#82b366;" vertex="1" parent="1">
          <mxGeometry x="49" y="530" width="730" height="170" as="geometry" />
        </mxCell>
        <mxCell id="_IArWRks9-vZPTTfE0xz-27" value="" style="rounded=0;whiteSpace=wrap;html=1;fillColor=#d5e8d4;strokeColor=#82b366;" vertex="1" parent="1">
          <mxGeometry x="48" y="220" width="730" height="170" as="geometry" />
        </mxCell>
        <mxCell id="vVJXTuxgDhsfZ6CfwKvQ-1" value="&lt;font style=&quot;font-size: 25px;&quot;&gt;flakes&lt;/font&gt;" style="text;align=center;fontStyle=1;verticalAlign=middle;spacingLeft=3;spacingRight=3;strokeColor=none;rotatable=0;points=[[0,0.5],[1,0.5]];portConstraint=eastwest;html=1;" parent="1" vertex="1">
          <mxGeometry x="373" y="80" width="80" height="26" as="geometry" />
        </mxCell>
        <mxCell id="_IArWRks9-vZPTTfE0xz-3" value="" style="edgeStyle=orthogonalEdgeStyle;rounded=0;orthogonalLoop=1;jettySize=auto;html=1;" edge="1" parent="1" source="PRd3GZCnSuUuFalOKYCs-173">
          <mxGeometry relative="1" as="geometry">
            <mxPoint x="413" y="285" as="targetPoint" />
          </mxGeometry>
        </mxCell>
        <mxCell id="PRd3GZCnSuUuFalOKYCs-173" value="«Developing Advanced Control&amp;nbsp;&lt;span style=&quot;background-color: initial;&quot;&gt;Strategy»&lt;/span&gt;" style="html=1;dropTarget=0;whiteSpace=wrap;" parent="1" vertex="1">
          <mxGeometry x="293" y="120" width="240" height="90" as="geometry" />
        </mxCell>
        <mxCell id="PRd3GZCnSuUuFalOKYCs-174" value="" style="shape=module;jettyWidth=8;jettyHeight=4;fillColor=#f8cecc;strokeColor=#b85450;" parent="PRd3GZCnSuUuFalOKYCs-173" vertex="1">
          <mxGeometry x="1" width="20" height="20" relative="1" as="geometry">
            <mxPoint x="-130" y="7" as="offset" />
          </mxGeometry>
        </mxCell>
        <mxCell id="_IArWRks9-vZPTTfE0xz-12" value="" style="edgeStyle=orthogonalEdgeStyle;rounded=0;orthogonalLoop=1;jettySize=auto;html=1;" edge="1" parent="1" source="_IArWRks9-vZPTTfE0xz-1" target="_IArWRks9-vZPTTfE0xz-8">
          <mxGeometry relative="1" as="geometry" />
        </mxCell>
        <mxCell id="_IArWRks9-vZPTTfE0xz-1" value="Conventional-Modified" style="html=1;dropTarget=0;whiteSpace=wrap;" vertex="1" parent="1">
          <mxGeometry x="320" y="285" width="160" height="40" as="geometry" />
        </mxCell>
        <mxCell id="_IArWRks9-vZPTTfE0xz-6" value="Machine Learning" style="html=1;dropTarget=0;whiteSpace=wrap;" vertex="1" parent="1">
          <mxGeometry x="560" y="285" width="160" height="40" as="geometry" />
        </mxCell>
        <mxCell id="_IArWRks9-vZPTTfE0xz-8" value="MPC" style="html=1;dropTarget=0;whiteSpace=wrap;" vertex="1" parent="1">
          <mxGeometry x="80" y="285" width="160" height="40" as="geometry" />
        </mxCell>
        <mxCell id="_IArWRks9-vZPTTfE0xz-11" value="" style="endArrow=classic;startArrow=classic;html=1;rounded=0;exitX=1;exitY=0.5;exitDx=0;exitDy=0;" edge="1" parent="1" source="_IArWRks9-vZPTTfE0xz-8">
          <mxGeometry width="50" height="50" relative="1" as="geometry">
            <mxPoint x="270" y="355" as="sourcePoint" />
            <mxPoint x="320" y="305" as="targetPoint" />
          </mxGeometry>
        </mxCell>
        <mxCell id="_IArWRks9-vZPTTfE0xz-13" value="" style="endArrow=classic;startArrow=classic;html=1;rounded=0;exitX=1;exitY=0.5;exitDx=0;exitDy=0;" edge="1" parent="1">
          <mxGeometry width="50" height="50" relative="1" as="geometry">
            <mxPoint x="480" y="304.5" as="sourcePoint" />
            <mxPoint x="560" y="304.5" as="targetPoint" />
          </mxGeometry>
        </mxCell>
        <mxCell id="_IArWRks9-vZPTTfE0xz-28" value="Simulation" style="text;html=1;align=center;verticalAlign=middle;whiteSpace=wrap;rounded=0;fontFamily=Garamond;fontSize=20;fillColor=#f8cecc;strokeColor=#b85450;" vertex="1" parent="1">
          <mxGeometry x="170" y="230" width="150" height="30" as="geometry" />
        </mxCell>
        <mxCell id="_IArWRks9-vZPTTfE0xz-29" value="Real Time" style="text;html=1;align=center;verticalAlign=middle;whiteSpace=wrap;rounded=0;fontFamily=Garamond;fontSize=20;fillColor=#dae8fc;strokeColor=#6c8ebf;" vertex="1" parent="1">
          <mxGeometry x="484" y="230" width="150" height="30" as="geometry" />
        </mxCell>
        <mxCell id="_IArWRks9-vZPTTfE0xz-30" value="Deployable" style="text;html=1;align=center;verticalAlign=middle;whiteSpace=wrap;rounded=0;fontFamily=Garamond;fontSize=20;fillColor=#f5f5f5;strokeColor=#666666;fontColor=#333333;" vertex="1" parent="1">
          <mxGeometry x="138" y="340" width="150" height="30" as="geometry" />
        </mxCell>
        <mxCell id="_IArWRks9-vZPTTfE0xz-31" value="Data Analysis" style="text;html=1;align=center;verticalAlign=middle;whiteSpace=wrap;rounded=0;fontFamily=Garamond;fontSize=20;fillColor=#fff2cc;strokeColor=#d6b656;" vertex="1" parent="1">
          <mxGeometry x="378" y="340" width="150" height="30" as="geometry" />
        </mxCell>
        <mxCell id="_IArWRks9-vZPTTfE0xz-36" value="" style="shape=doubleArrow;whiteSpace=wrap;html=1;rotation=90;" vertex="1" parent="1">
          <mxGeometry x="344" y="430" width="140" height="60" as="geometry" />
        </mxCell>
        <mxCell id="_IArWRks9-vZPTTfE0xz-38" value="Root Cause" style="text;html=1;align=center;verticalAlign=middle;whiteSpace=wrap;rounded=0;fontFamily=Garamond;fontSize=20;fillColor=#f8cecc;strokeColor=#b85450;" vertex="1" parent="1">
          <mxGeometry x="250" y="580" width="150" height="30" as="geometry" />
        </mxCell>
        <mxCell id="_IArWRks9-vZPTTfE0xz-40" value="Sustainable Solution" style="text;html=1;align=center;verticalAlign=middle;whiteSpace=wrap;rounded=0;fontFamily=Garamond;fontSize=20;fillColor=#dae8fc;strokeColor=#6c8ebf;" vertex="1" parent="1">
          <mxGeometry x="440" y="550" width="170" height="30" as="geometry" />
        </mxCell>
        <mxCell id="_IArWRks9-vZPTTfE0xz-41" value="Proven Outcome" style="text;html=1;align=center;verticalAlign=middle;whiteSpace=wrap;rounded=0;fontFamily=Garamond;fontSize=20;fillColor=#f5f5f5;strokeColor=#666666;fontColor=#333333;" vertex="1" parent="1">
          <mxGeometry x="350" y="640" width="150" height="30" as="geometry" />
        </mxCell>
      </root>
    </mxGraphModel>
  </diagram>
  <diagram name="Work-flow" id="sZmlC0oSNnBUUAjskfl8">
    <mxGraphModel dx="1481" dy="779" grid="1" gridSize="10" guides="1" tooltips="1" connect="1" arrows="1" fold="1" page="1" pageScale="1" pageWidth="827" pageHeight="1169" math="0" shadow="0">
      <root>
        <mxCell id="W-jRZXj0DYIqK6WSK2R_-0" />
        <mxCell id="W-jRZXj0DYIqK6WSK2R_-1" parent="W-jRZXj0DYIqK6WSK2R_-0" />
        <mxCell id="uVPIT5AXHLEmCoUOWnDU-5" value="" style="edgeStyle=orthogonalEdgeStyle;rounded=0;orthogonalLoop=1;jettySize=auto;html=1;" edge="1" parent="W-jRZXj0DYIqK6WSK2R_-1" source="uVPIT5AXHLEmCoUOWnDU-0" target="uVPIT5AXHLEmCoUOWnDU-1">
          <mxGeometry relative="1" as="geometry" />
        </mxCell>
        <mxCell id="uVPIT5AXHLEmCoUOWnDU-0" value="&lt;font style=&quot;font-size: 25px;&quot;&gt;flakes&lt;/font&gt;" style="shape=folder;fontStyle=1;spacingTop=10;tabWidth=80;tabHeight=30;tabPosition=left;html=1;whiteSpace=wrap;" vertex="1" parent="W-jRZXj0DYIqK6WSK2R_-1">
          <mxGeometry x="329" y="120" width="170" height="120" as="geometry" />
        </mxCell>
        <mxCell id="uVPIT5AXHLEmCoUOWnDU-17" style="edgeStyle=orthogonalEdgeStyle;curved=1;rounded=0;orthogonalLoop=1;jettySize=auto;html=1;exitX=0.5;exitY=1;exitDx=0;exitDy=0;entryX=0;entryY=0.25;entryDx=0;entryDy=0;elbow=vertical;" edge="1" parent="W-jRZXj0DYIqK6WSK2R_-1" source="uVPIT5AXHLEmCoUOWnDU-1" target="uVPIT5AXHLEmCoUOWnDU-12">
          <mxGeometry relative="1" as="geometry" />
        </mxCell>
        <mxCell id="uVPIT5AXHLEmCoUOWnDU-1" value="&lt;font style=&quot;font-size: 21px;&quot;&gt;flakes&lt;/font&gt;" style="shape=module;align=center;spacingLeft=20;align=center;verticalAlign=top;whiteSpace=wrap;html=1;jettyWidth=66;jettyHeight=22;" vertex="1" parent="W-jRZXj0DYIqK6WSK2R_-1">
          <mxGeometry x="314" y="290" width="200" height="120" as="geometry" />
        </mxCell>
        <mxCell id="uVPIT5AXHLEmCoUOWnDU-6" value="&lt;span style=&quot;font-size: 21px;&quot;&gt;utility&lt;/span&gt;" style="shape=module;align=center;spacingLeft=20;align=center;verticalAlign=top;whiteSpace=wrap;html=1;jettyWidth=66;jettyHeight=22;" vertex="1" parent="W-jRZXj0DYIqK6WSK2R_-1">
          <mxGeometry x="80" y="290" width="200" height="120" as="geometry" />
        </mxCell>
        <mxCell id="uVPIT5AXHLEmCoUOWnDU-7" value="" style="edgeStyle=orthogonalEdgeStyle;rounded=0;orthogonalLoop=1;jettySize=auto;html=1;exitX=0.5;exitY=1;exitDx=0;exitDy=0;exitPerimeter=0;" edge="1" parent="W-jRZXj0DYIqK6WSK2R_-1" source="uVPIT5AXHLEmCoUOWnDU-0">
          <mxGeometry relative="1" as="geometry">
            <mxPoint x="424" y="250" as="sourcePoint" />
            <mxPoint x="180" y="290" as="targetPoint" />
            <Array as="points">
              <mxPoint x="414" y="265" />
              <mxPoint x="180" y="265" />
            </Array>
          </mxGeometry>
        </mxCell>
        <mxCell id="uVPIT5AXHLEmCoUOWnDU-8" value="&lt;span style=&quot;font-size: 21px;&quot;&gt;utility&lt;/span&gt;" style="shape=module;align=center;spacingLeft=20;align=center;verticalAlign=top;whiteSpace=wrap;html=1;jettyWidth=66;jettyHeight=22;" vertex="1" parent="W-jRZXj0DYIqK6WSK2R_-1">
          <mxGeometry x="580" y="290" width="200" height="120" as="geometry" />
        </mxCell>
        <mxCell id="uVPIT5AXHLEmCoUOWnDU-10" value="" style="edgeStyle=orthogonalEdgeStyle;rounded=0;orthogonalLoop=1;jettySize=auto;html=1;entryX=0.75;entryY=0;entryDx=0;entryDy=0;exitX=0.5;exitY=1;exitDx=0;exitDy=0;exitPerimeter=0;" edge="1" parent="W-jRZXj0DYIqK6WSK2R_-1" source="uVPIT5AXHLEmCoUOWnDU-0" target="uVPIT5AXHLEmCoUOWnDU-8">
          <mxGeometry relative="1" as="geometry">
            <mxPoint x="410" y="240" as="sourcePoint" />
            <mxPoint x="424" y="300" as="targetPoint" />
            <Array as="points">
              <mxPoint x="414" y="270" />
              <mxPoint x="730" y="270" />
            </Array>
          </mxGeometry>
        </mxCell>
        <mxCell id="uVPIT5AXHLEmCoUOWnDU-12" value="&lt;p style=&quot;margin:0px;margin-top:4px;text-align:center;&quot;&gt;&lt;b&gt;Class&lt;/b&gt;&lt;/p&gt;&lt;hr size=&quot;1&quot; style=&quot;border-style:solid;&quot;&gt;&lt;p style=&quot;text-align: center; margin: 0px 0px 0px 4px;&quot;&gt;PID&lt;/p&gt;&lt;hr size=&quot;1&quot; style=&quot;border-style:solid;&quot;&gt;&lt;p style=&quot;margin:0px;margin-left:4px;&quot;&gt;+ method():&amp;nbsp;&lt;/p&gt;&lt;hr style=&quot;border-style: solid;&quot; size=&quot;1&quot;&gt;&lt;p style=&quot;margin: 0px 0px 0px 4px;&quot;&gt;+ method():&amp;nbsp;&lt;/p&gt;&lt;p style=&quot;margin: 0px 0px 0px 4px;&quot;&gt;&lt;br&gt;&lt;/p&gt;&lt;hr style=&quot;border-style: solid;&quot; size=&quot;1&quot;&gt;&lt;p style=&quot;margin: 0px 0px 0px 4px;&quot;&gt;+ method():&amp;nbsp;&lt;/p&gt;&lt;p style=&quot;margin: 0px 0px 0px 4px;&quot;&gt;&lt;br&gt;&lt;/p&gt;&lt;hr style=&quot;border-style: solid;&quot; size=&quot;1&quot;&gt;&lt;p style=&quot;margin: 0px 0px 0px 4px;&quot;&gt;+ method():&amp;nbsp;&lt;/p&gt;&lt;p style=&quot;margin: 0px 0px 0px 4px;&quot;&gt;&lt;br&gt;&lt;/p&gt;&lt;hr style=&quot;border-style: solid;&quot; size=&quot;1&quot;&gt;&lt;p style=&quot;margin: 0px 0px 0px 4px;&quot;&gt;+ method():&amp;nbsp;&lt;/p&gt;" style="verticalAlign=top;align=left;overflow=fill;html=1;whiteSpace=wrap;" vertex="1" parent="W-jRZXj0DYIqK6WSK2R_-1">
          <mxGeometry x="354" y="500" width="160" height="240" as="geometry" />
        </mxCell>
        <mxCell id="uVPIT5AXHLEmCoUOWnDU-18" value="&lt;p style=&quot;margin:0px;margin-top:4px;text-align:center;&quot;&gt;&lt;b&gt;Class&lt;/b&gt;&lt;/p&gt;&lt;hr size=&quot;1&quot; style=&quot;border-style:solid;&quot;&gt;&lt;p style=&quot;text-align: center; margin: 0px 0px 0px 4px;&quot;&gt;MLE&lt;/p&gt;&lt;hr size=&quot;1&quot; style=&quot;border-style:solid;&quot;&gt;&lt;p style=&quot;margin:0px;margin-left:4px;&quot;&gt;+ method():&amp;nbsp;&lt;/p&gt;&lt;hr style=&quot;border-style: solid;&quot; size=&quot;1&quot;&gt;&lt;p style=&quot;margin: 0px 0px 0px 4px;&quot;&gt;+ method():&amp;nbsp;&lt;/p&gt;&lt;p style=&quot;margin: 0px 0px 0px 4px;&quot;&gt;&lt;br&gt;&lt;/p&gt;&lt;hr style=&quot;border-style: solid;&quot; size=&quot;1&quot;&gt;&lt;p style=&quot;margin: 0px 0px 0px 4px;&quot;&gt;+ method():&amp;nbsp;&lt;/p&gt;&lt;p style=&quot;margin: 0px 0px 0px 4px;&quot;&gt;&lt;br&gt;&lt;/p&gt;&lt;hr style=&quot;border-style: solid;&quot; size=&quot;1&quot;&gt;&lt;p style=&quot;margin: 0px 0px 0px 4px;&quot;&gt;+ method():&amp;nbsp;&lt;/p&gt;&lt;p style=&quot;margin: 0px 0px 0px 4px;&quot;&gt;&lt;br&gt;&lt;/p&gt;&lt;hr style=&quot;border-style: solid;&quot; size=&quot;1&quot;&gt;&lt;p style=&quot;margin: 0px 0px 0px 4px;&quot;&gt;+ method():&amp;nbsp;&lt;/p&gt;" style="verticalAlign=top;align=left;overflow=fill;html=1;whiteSpace=wrap;" vertex="1" parent="W-jRZXj0DYIqK6WSK2R_-1">
          <mxGeometry x="354" y="780" width="160" height="240" as="geometry" />
        </mxCell>
        <mxCell id="uVPIT5AXHLEmCoUOWnDU-21" value="&lt;p style=&quot;margin:0px;margin-top:4px;text-align:center;&quot;&gt;&lt;b&gt;Class&lt;/b&gt;&lt;/p&gt;&lt;hr size=&quot;1&quot; style=&quot;border-style:solid;&quot;&gt;&lt;p style=&quot;text-align: center; margin: 0px 0px 0px 4px;&quot;&gt;MPC&lt;/p&gt;&lt;hr size=&quot;1&quot; style=&quot;border-style:solid;&quot;&gt;&lt;p style=&quot;margin:0px;margin-left:4px;&quot;&gt;+ method():&amp;nbsp;&lt;/p&gt;&lt;hr style=&quot;border-style: solid;&quot; size=&quot;1&quot;&gt;&lt;p style=&quot;margin: 0px 0px 0px 4px;&quot;&gt;+ method():&amp;nbsp;&lt;/p&gt;&lt;p style=&quot;margin: 0px 0px 0px 4px;&quot;&gt;&lt;br&gt;&lt;/p&gt;&lt;hr style=&quot;border-style: solid;&quot; size=&quot;1&quot;&gt;&lt;p style=&quot;margin: 0px 0px 0px 4px;&quot;&gt;+ method():&amp;nbsp;&lt;/p&gt;&lt;p style=&quot;margin: 0px 0px 0px 4px;&quot;&gt;&lt;br&gt;&lt;/p&gt;&lt;hr style=&quot;border-style: solid;&quot; size=&quot;1&quot;&gt;&lt;p style=&quot;margin: 0px 0px 0px 4px;&quot;&gt;+ method():&amp;nbsp;&lt;/p&gt;&lt;p style=&quot;margin: 0px 0px 0px 4px;&quot;&gt;&lt;br&gt;&lt;/p&gt;&lt;hr style=&quot;border-style: solid;&quot; size=&quot;1&quot;&gt;&lt;p style=&quot;margin: 0px 0px 0px 4px;&quot;&gt;+ method():&amp;nbsp;&lt;/p&gt;" style="verticalAlign=top;align=left;overflow=fill;html=1;whiteSpace=wrap;" vertex="1" parent="W-jRZXj0DYIqK6WSK2R_-1">
          <mxGeometry x="354" y="1060" width="160" height="240" as="geometry" />
        </mxCell>
      </root>
    </mxGraphModel>
  </diagram>
</mxfile>
